<svg xmlns="http://www.w3.org/2000/svg" xml:space="preserve" width="2048" height="2048" style="shape-rendering:geometricPrecision;text-rendering:geometricPrecision;image-rendering:optimizeQuality;fill-rule:evenodd;clip-rule:evenodd"><defs><style>.fil0{fill:none}.fil1{fill:#212121;fill-rule:nonzero}</style></defs><g id="Layer_x0020_1"><g id="_394198144"><path id="_394189792" class="fil0" d="M0 0h2048v2048H0z"/><path id="_394190800" class="fil0" d="M255.999 255.999h1536v1536h-1536z"/></g><path class="fil1" d="M731.684 895.998c54.887 0 104.93-27.443 141.46-71.811 37.945-46.09 61.419-110.223 61.419-181.474 0-73.41-7.564-139.133-37.061-184.353-27.78-42.59-78.134-68.935-165.817-68.935-87.691 0-138.044 26.345-165.825 68.935-29.493 45.218-37.054 110.943-37.054 184.353 0 71.254 23.472 135.388 61.418 181.478 36.526 44.366 86.569 71.807 141.46 71.807zm190.709-31.311C873.909 923.576 806.504 960 731.684 960c-74.825 0-142.228-36.423-190.71-95.31-47.06-57.16-76.17-135.67-76.17-221.977 0-84.143 9.703-161.067 47.557-219.103 39.569-60.663 106.66-98.187 219.324-98.187 112.656 0 179.746 37.525 219.317 98.187 37.855 58.034 47.563 134.959 47.563 219.103 0 86.305-29.111 164.814-76.17 221.974z"/><path class="fil1" d="M1085.7 1120c-37.984-44.435-104.086-70.631-215.151-91.88-21.383 18.132-66.667 46.881-138.861 46.881-72.202 0-117.488-28.748-138.873-46.88-117.294 22.442-184.454 50.419-221.29 99.587-38.95 51.988-48.555 132.934-50.928 259.868l-.09 4.815c-.19 9.985-.36 18.95-.406 35.015C337.249 1450.676 421.26 1536 731.688 1536c79.357 0 143.887-5.584 196.316-14.275v63.72c-54.533 8.977-119.334 14.557-196.316 14.557-397.693 0-471.626-148.484-471.85-148.91l-3.751-14.75c0-9.733.313-26.226.667-44.95l.091-4.816c2.622-140.316 14.537-231.527 63.68-297.12 49.623-66.236 132.773-101.017 276.907-127.036l18.614-3.359 11.887 14.859c.084.105 29.052 37.08 103.754 37.08 74.69 0 103.657-36.975 103.741-37.08l11.888-14.859 18.613 3.36c145.787 26.314 229.195 61.607 278.608 129.362 6.503 8.918 12.33 18.308 17.562 28.217h-76.4z"/><path class="fil1" d="M1056 1152h672.002c26.434 0 50.441 10.792 67.825 28.175 17.383 17.384 28.175 41.393 28.175 67.825v384.003c0 26.434-10.792 50.441-28.175 67.825-17.384 17.384-41.39 28.175-67.825 28.175H1056c-26.432 0-50.441-10.792-67.825-28.175-17.383-17.384-28.175-41.39-28.175-67.825V1248c0-26.432 10.792-50.441 28.175-67.825C1005.56 1162.792 1029.568 1152 1056 1152zm672.002 64.002H1056c-8.766 0-16.761 3.61-22.574 9.424-5.814 5.813-9.424 13.808-9.424 22.574v384.003c0 8.766 3.61 16.761 9.424 22.574 5.813 5.814 13.808 9.424 22.574 9.424h672.002c8.766 0 16.761-3.61 22.574-9.424 5.814-5.813 9.424-13.808 9.424-22.574V1248c0-8.766-3.61-16.761-9.424-22.574-5.813-5.814-13.808-9.424-22.574-9.424z"/><path class="fil1" d="M1264 1184c0 17.673 14.328 32 32 32 17.674 0 32.002-14.327 32.002-32v-64H1456v64c0 17.673 14.328 32 32 32 17.673 0 32.001-14.327 32.001-32v-96c0-17.673-14.328-32-32-32h-192c-17.673 0-32.001 14.327-32.001 32v96z"/></g></svg>