<svg xmlns="http://www.w3.org/2000/svg" viewBox="0 0 48 48"><g data-name="17analytics"><path d="M43 42H5a5.006 5.006 0 0 1-5-5V13a5.006 5.006 0 0 1 5-5h3v2H5a3 3 0 0 0-3 3v24a3 3 0 0 0 3 3h38a3 3 0 0 0 3-3v-3h2v3a5.006 5.006 0 0 1-5 5zM14 46h20v2H14z"/><path d="M17 41h2v6h-2zM29 41h2v6h-2zM28 24a12 12 0 1 1 12-12 12.013 12.013 0 0 1-12 12zm0-22a10 10 0 1 0 10 10A10.011 10.011 0 0 0 28 2z"/><path d="M29 13h-2a3 3 0 0 1 0-6h2a3 3 0 0 1 3 3h-2a1 1 0 0 0-1-1h-2a1 1 0 0 0 0 2h2z"/><path d="M29 17h-2a3 3 0 0 1-3-3h2a1 1 0 0 0 1 1h2a1 1 0 0 0 0-2h-2v-2h2a3 3 0 0 1 0 6zM27 6h2v2h-2z"/><path d="M27 16h2v2h-2zM44.8 32a3.2 3.2 0 0 1-2.267-.936l-6.236-6.237a1 1 0 0 1 0-1.414l3.118-3.118a1 1 0 0 1 1.414 0l6.237 6.236a3.212 3.212 0 0 1 0 4.533A3.2 3.2 0 0 1 44.8 32zm-6.382-7.88 5.529 5.529a1.2 1.2 0 1 0 1.7-1.7l-5.529-5.529z"/><path d="m35.293 20.708 1.415-1.415 3 3-1.414 1.415zM6 35h36v2H6z"/><path d="M12 36h-2V3a1 1 0 0 1 1-1h5v2h-4zM15 21h2v15h-2zM28 36h-2v-7h-3v7h-2v-8a1 1 0 0 1 1-1h5a1 1 0 0 1 1 1zM39 36h-2v-4h-3v4h-2v-5a1 1 0 0 1 1-1h5a1 1 0 0 1 1 1zM48 24h-2V13a3 3 0 0 0-3-3h-1V8h1a5.006 5.006 0 0 1 5 5z"/></g></svg>