<svg xmlns="http://www.w3.org/2000/svg" viewBox="0 0 64 64"><defs><style>.cls-1{fill:#272835}</style></defs><g id="_7-Support" data-name="7-Support"><path class="cls-1" d="M32 0a32 32 0 1 0 32 32A32 32 0 0 0 32 0zm0 62a30 30 0 1 1 30-30 30 30 0 0 1-30 30z"/><path class="cls-1" d="M56 31h-2a3 3 0 0 0-3-3v-2h-1v-9a7 7 0 0 0-7-7H21a7 7 0 0 0-7 7v9h-1v2a3 3 0 0 0-3 3H8a1 1 0 0 0-1 1v8a1 1 0 0 0 1 1h2a3 3 0 0 0 3 3h4a1 1 0 0 0 1-1V29a1 1 0 0 0-1-1v-2h-1v-9a5 5 0 0 1 5-5h22a5 5 0 0 1 5 5v9h-1v2a1 1 0 0 0-1 1v14a1 1 0 0 0 1 1h2a6.36 6.36 0 0 1-1.63 3.5C45.4 49.64 41.82 50.83 37 51v-1a1 1 0 0 0-1-1H26a1 1 0 0 0-1 1v4a1 1 0 0 0 1 1h10a1 1 0 0 0 1-1v-1c5.51-.15 9.51-1.54 11.86-4.17A8.33 8.33 0 0 0 51 44a3 3 0 0 0 3-3h2a1 1 0 0 0 1-1v-8a1 1 0 0 0-1-1zm-46 8H9v-6h1zm6 3h-3a1 1 0 0 1-1-1V31a1 1 0 0 1 1-1h3zm19 11h-8v-2h8zm17-21v9a1 1 0 0 1-1 1h-3V30h3a1 1 0 0 1 1 1zm3 7h-1v-6h1z"/><path class="cls-1" d="M31 31h2v2h-2zM36 31h2v2h-2zM26 31h2v2h-2z"/></g></svg>