<svg xmlns="http://www.w3.org/2000/svg" viewBox="0 0 24 24"><path d="M20.991 10H19.42a1.039 1.039 0 0 1-.951-.674l-.005-.013a1.04 1.04 0 0 1 .2-1.146l1.11-1.11a1.01 1.01 0 0 0 0-1.428l-1.4-1.4a1.01 1.01 0 0 0-1.428 0l-1.11 1.11a1.04 1.04 0 0 1-1.146.2h-.013a1.04 1.04 0 0 1-.677-.96v-1.57A1.009 1.009 0 0 0 12.991 2h-1.982A1.009 1.009 0 0 0 10 3.009v1.57a1.04 1.04 0 0 1-.674.952h-.013a1.04 1.04 0 0 1-1.146-.2l-1.11-1.11a1.01 1.01 0 0 0-1.428 0l-1.4 1.4a1.01 1.01 0 0 0 0 1.428l1.11 1.11a1.04 1.04 0 0 1 .2 1.146v.013A1.039 1.039 0 0 1 4.58 10H3.009A1.009 1.009 0 0 0 2 11.009v1.982A1.009 1.009 0 0 0 3.009 14H4.58a1.039 1.039 0 0 1 .951.674v.013a1.04 1.04 0 0 1-.2 1.146l-1.11 1.11a1.01 1.01 0 0 0 0 1.428l1.4 1.4a1.01 1.01 0 0 0 1.428 0l1.11-1.11a1.04 1.04 0 0 1 1.146-.2l.013.005a1.039 1.039 0 0 1 .682.954v1.571A1.009 1.009 0 0 0 11.009 22h1.982A1.009 1.009 0 0 0 14 20.991V19.42a1.039 1.039 0 0 1 .674-.951l.013-.005a1.04 1.04 0 0 1 1.146.2l1.11 1.11a1.01 1.01 0 0 0 1.428 0l1.4-1.4a1.01 1.01 0 0 0 0-1.428l-1.11-1.11a1.04 1.04 0 0 1-.2-1.146l.005-.013A1.039 1.039 0 0 1 19.42 14h1.571A1.009 1.009 0 0 0 22 12.991v-1.982A1.009 1.009 0 0 0 20.991 10zM12 15a3 3 0 1 1 3-3 3 3 0 0 1-3 3z"/></svg>